<svg width="85" height="79" viewBox="0 0 85 79" fill="none" xmlns="http://www.w3.org/2000/svg">
<path d="M42.5002 6.9707C22.9714 6.9707 7.0835 21.4559 7.0835 39.2604C7.0835 57.065 22.9714 71.5501 42.5002 71.5501C62.0289 71.5501 77.9168 57.065 77.9168 39.2604C77.9168 21.4559 62.0289 6.9707 42.5002 6.9707ZM42.5002 13.4286C53.8795 13.4286 63.6864 19.5895 68.1914 28.4369C67.0973 27.9648 66.0384 27.4276 65.0216 26.8289C63.5731 25.9958 61.9297 25.0497 59.8508 24.3361C57.4814 23.5127 54.8925 23.1156 51.9387 23.1156C48.985 23.1156 46.396 23.5127 44.0266 24.3329C41.9477 25.0529 40.3043 25.999 38.8133 26.8547C37.4745 27.62 36.3235 28.2851 34.9068 28.7727C33.3272 29.3184 31.6131 29.5735 29.5022 29.5735C27.395 29.5735 25.6808 29.3184 24.1047 28.7727C22.6881 28.2851 21.5264 27.6167 20.1877 26.8418C19.6175 26.5157 18.9835 26.1702 18.346 25.8311C23.3291 18.4077 32.2754 13.4286 42.5002 13.4286ZM42.5002 65.0922C26.8779 65.0922 14.1668 53.5034 14.1668 39.2604C14.1668 36.6449 14.6025 34.1263 15.3993 31.7466C15.7322 31.9339 16.0545 32.1018 16.4016 32.3052C17.8572 33.1447 19.5041 34.0941 21.5937 34.8109C23.9631 35.6343 26.5485 36.0314 29.5022 36.0314C32.4525 36.0314 35.0414 35.6343 37.4179 34.8141C39.4968 34.0941 41.1402 33.148 42.6312 32.2923C43.97 31.527 45.121 30.8619 46.5377 30.3711C48.1137 29.8286 49.8279 29.5735 51.9387 29.5735C54.0495 29.5735 55.7637 29.8286 57.3397 30.3743C58.7529 30.8586 59.9075 31.5238 61.2852 32.3181C62.7337 33.1512 64.377 34.0973 66.456 34.8141C67.7416 35.2597 69.1052 35.5536 70.5395 35.7537C70.7131 36.9065 70.8335 38.0689 70.8335 39.2604C70.8335 53.5034 58.1225 65.0922 42.5002 65.0922Z" fill="#FF4848"/>
<path d="M30.104 48.9474C33.038 48.9474 35.4165 46.7789 35.4165 44.104C35.4165 41.429 33.038 39.2605 30.104 39.2605C27.17 39.2605 24.7915 41.429 24.7915 44.104C24.7915 46.7789 27.17 48.9474 30.104 48.9474Z" fill="#FF4848"/>
<path d="M54.896 48.9474C57.83 48.9474 60.2085 46.7789 60.2085 44.104C60.2085 41.429 57.83 39.2605 54.896 39.2605C51.962 39.2605 49.5835 41.429 49.5835 44.104C49.5835 46.7789 51.962 48.9474 54.896 48.9474Z" fill="#FF4848"/>
</svg>
