<svg width="51" height="71" viewBox="0 0 51 71" fill="none" xmlns="http://www.w3.org/2000/svg">
<path d="M14.8747 63.8334H36.1247V70.9167H14.8747V63.8334ZM42.8751 41.5634C46.523 37.2921 50.2913 32.8757 50.2913 24.875C50.2913 11.2077 39.167 0.083374 25.4997 0.083374C11.8324 0.083374 0.708008 11.2077 0.708008 24.875C0.708008 32.9678 4.48697 37.37 8.14905 41.6271C9.41697 43.1075 10.7309 44.6411 11.9882 46.4048C12.4982 47.1344 13.334 49.9323 14.0813 53.2084H11.333V60.2917H39.6663V53.2084H36.9251C37.6795 49.9253 38.5188 47.1203 39.0253 46.3907C40.272 44.6092 41.5965 43.0615 42.8751 41.5634ZM33.2276 42.3177C31.6905 44.503 30.4084 49.6667 29.6647 53.2084H21.3382C20.598 49.6596 19.3124 44.4852 17.7576 42.3C16.4286 40.4737 15.0151 38.7104 13.5218 37.0159C10.0722 32.9996 7.79134 30.3434 7.79134 24.875C7.79134 15.1107 15.7353 7.16671 25.4997 7.16671C35.264 7.16671 43.208 15.1107 43.208 24.875C43.208 30.2619 40.9307 32.9288 37.4882 36.9627C36.1672 38.514 34.669 40.2671 33.2276 42.3177Z" fill="#EA6CFF"/>
</svg>
