<svg width="51" height="65" viewBox="0 0 51 65" fill="none" xmlns="http://www.w3.org/2000/svg">
<path d="M14.8752 58.4585H36.1252V64.9165H14.8752V58.4585ZM42.8756 38.1547C46.5235 34.2606 50.2918 30.2341 50.2918 22.9398C50.2918 10.4792 39.1675 0.337036 25.5002 0.337036C11.8329 0.337036 0.708496 10.4792 0.708496 22.9398C0.708496 30.318 4.48745 34.3316 8.14954 38.2129C9.41745 39.5626 10.7314 40.9607 11.9887 42.5687C12.4987 43.2339 13.3345 45.7848 14.0818 48.7716H11.3335V55.2295H39.6668V48.7716H36.9256C37.68 45.7783 38.5193 43.221 39.0258 42.5558C40.2725 40.9317 41.597 39.5206 42.8756 38.1547ZM33.2281 38.8425C31.691 40.8348 30.4089 45.5426 29.6652 48.7716H21.3387C20.5985 45.5362 19.3129 40.8186 17.7581 38.8264C16.4291 37.1613 15.0156 35.5537 13.5222 34.0087C10.0727 30.3471 7.79183 27.9254 7.79183 22.9398C7.79183 14.0376 15.7358 6.79498 25.5002 6.79498C35.2645 6.79498 43.2085 14.0376 43.2085 22.9398C43.2085 27.8511 40.9312 30.2825 37.4887 33.9603C36.1677 35.3746 34.6695 36.9729 33.2281 38.8425Z" fill="#FF4848"/>
</svg>
