<svg width="21" height="21" viewBox="0 0 21 21" fill="none" xmlns="http://www.w3.org/2000/svg">
<path d="M20.8616 7.56196C20.7962 7.36911 20.6757 7.19966 20.515 7.07452C20.3543 6.94939 20.1605 6.87404 19.9575 6.8578L14.0189 6.38592L11.4491 0.697378C11.3673 0.514162 11.2342 0.358547 11.0659 0.249313C10.8975 0.14008 10.7012 0.0818974 10.5005 0.0817873C10.2999 0.0816771 10.1035 0.139644 9.93501 0.248693C9.76656 0.357741 9.63327 0.51321 9.55123 0.696337L6.98144 6.38592L1.0429 6.8578C0.843373 6.8736 0.652626 6.94656 0.493477 7.06793C0.334328 7.18931 0.213516 7.35396 0.145495 7.5422C0.0774749 7.73044 0.0651253 7.93429 0.109924 8.12936C0.154724 8.32443 0.254774 8.50247 0.398107 8.64217L4.78665 12.9203L3.23457 19.6411C3.18744 19.8446 3.20254 20.0575 3.27792 20.2522C3.3533 20.447 3.48547 20.6146 3.65728 20.7333C3.82909 20.8519 4.03261 20.9163 4.24142 20.9179C4.45024 20.9194 4.65472 20.8582 4.82831 20.7422L10.5002 16.9609L16.1721 20.7422C16.3495 20.86 16.5588 20.9206 16.7717 20.916C16.9846 20.9113 17.191 20.8415 17.3631 20.7161C17.5352 20.5906 17.6647 20.4154 17.7343 20.2141C17.8039 20.0128 17.8102 19.7951 17.7523 19.5901L15.8471 12.9234L20.5721 8.67134C20.8814 8.39217 20.995 7.95675 20.8616 7.56196Z" fill="#FFED46"/>
</svg>
