<svg width="71" height="67" viewBox="0 0 71 67" fill="none" xmlns="http://www.w3.org/2000/svg">
<path d="M7.16634 66.5H41.2372C43.281 66.5011 45.3008 66.0646 47.1576 65.2205C49.0144 64.3765 50.6641 63.1449 51.9932 61.6105L70.0628 40.7785C70.4412 40.3431 70.7054 39.8223 70.8321 39.2622C70.9589 38.702 70.9443 38.1197 70.7896 37.5664C70.635 37.0132 70.345 36.506 69.9453 36.0896C69.5455 35.6732 69.0483 35.3603 68.4974 35.1785L61.5274 32.8825C59.8428 32.3414 58.0492 32.219 56.3053 32.526C54.5615 32.8331 52.921 33.5602 51.5293 34.643L40.249 43.5575L38.0638 39.235C36.8932 36.905 35.0856 34.9455 32.846 33.5784C30.6064 32.2114 28.0241 31.4914 25.3918 31.5H7.16634C3.25988 31.5 0.0830078 34.6395 0.0830078 38.5V59.5C0.0830078 63.3605 3.25988 66.5 7.16634 66.5ZM7.16634 38.5H25.3918C28.094 38.5 30.5201 39.9805 31.7278 42.3675L33.3109 45.5H17.7913V52.5H39.0909C39.6358 52.4929 40.1716 52.3611 40.6563 52.115L40.667 52.1115L40.6811 52.1045H40.6918L40.6988 52.101H40.713L40.7165 52.0975C40.7484 52.108 40.7272 52.094 40.7272 52.094C40.7626 52.094 40.7343 52.0905 40.7343 52.0905H40.7378L40.7449 52.087L40.7555 52.0835L40.7626 52.08L40.7697 52.0765L40.7803 52.073L40.7874 52.0695C40.798 52.0695 40.7909 52.066 40.7945 52.066L40.8051 52.059L40.8122 52.0555L40.8193 52.052L40.8299 52.0485L40.837 52.045H40.8405L40.8476 52.0415L40.8582 52.038L40.8653 52.0345C40.8972 52.031 40.8759 52.031 40.8759 52.031L40.883 52.0275C41.0195 51.9461 41.1497 51.8549 41.2726 51.7545L55.9563 40.145C56.8843 39.417 58.1628 39.1895 59.2855 39.5605L61.2582 40.2115L46.6205 57.092C45.9472 57.8476 45.119 58.453 44.1909 58.8682C43.2628 59.2833 42.2559 59.4987 41.2372 59.5H7.16634V38.5ZM49.6663 3.292e-05H49.6061C49.0288 0.00703292 46.0432 0.136533 42.583 2.46753C39.2149 0.199533 36.3001 0.0175327 35.613 0.00353267L35.5068 3.292e-05H35.4926C32.6557 3.292e-05 29.9853 1.09553 27.9878 3.07303C25.9832 5.05753 24.8747 7.69303 24.8747 10.5C24.8747 13.307 25.9832 15.9425 27.924 17.864L40.0153 30.415C40.348 30.7563 40.7469 31.0277 41.1883 31.213C41.6296 31.3983 42.1042 31.4936 42.5838 31.4933C43.0633 31.4929 43.5378 31.397 43.9789 31.2111C44.4199 31.0252 44.8185 30.7533 45.1507 30.4115L57.1782 17.9235C59.1863 15.9425 60.2913 13.307 60.2913 10.5C60.2913 7.69303 59.1828 5.05753 57.1818 3.07653C56.1984 2.09844 55.0284 1.32289 53.7395 0.794797C52.4507 0.266704 51.0686 -0.00343231 49.6734 3.292e-05H49.6663ZM53.208 10.5C53.208 11.4345 52.8397 12.313 52.1065 13.0375L42.583 22.925L32.9957 12.9745C32.3263 12.313 31.958 11.4345 31.958 10.5C31.958 9.56553 32.3263 8.68703 32.9993 8.02203C33.6397 7.37823 34.5118 7.01085 35.4253 7.00003C35.5138 7.00353 37.2032 7.11203 39.2043 8.69753C39.4911 8.92503 39.7815 9.18403 40.079 9.47453L42.583 11.949L45.087 9.47453C45.3845 9.18403 45.6749 8.92503 45.9618 8.69753C47.8353 7.21003 49.4184 7.02453 49.6876 7.00353C50.1492 7.00345 50.6063 7.09372 51.0324 7.26913C51.4585 7.44454 51.8453 7.70162 52.1703 8.02553C52.8397 8.68703 53.208 9.56553 53.208 10.5Z" fill="#EA6CFF"/>
</svg>
