<svg width="68" height="62" viewBox="0 0 68 62" fill="none" xmlns="http://www.w3.org/2000/svg">
<path d="M64.6725 3.11169C60.5004 -0.695269 53.2187 -0.695269 49.0467 3.11169L19.371 30.1672C19.0419 30.4668 18.7807 30.8227 18.6025 31.2144C18.4243 31.6061 18.3326 32.026 18.3326 32.4501C18.3326 32.8742 18.4243 33.2941 18.6025 33.6858C18.7807 34.0775 19.0419 34.4334 19.371 34.733L29.996 44.4199C30.3242 44.7208 30.7143 44.9596 31.1441 45.1225C31.5738 45.2855 32.0346 45.3693 32.5 45.3693C32.9654 45.3693 33.4262 45.2855 33.8559 45.1225C34.2857 44.9596 34.6758 44.7208 35.004 44.4199L64.6796 17.3644C66.7501 15.4727 67.9124 12.9091 67.911 10.2367C67.9097 7.56427 66.7449 5.00162 64.6725 3.11169ZM59.6717 12.7986L32.5 37.5713L26.8829 32.4501L54.0546 7.67745C54.8111 7.01799 55.8179 6.65048 56.8645 6.65169C57.9112 6.65289 58.9169 7.02271 59.6717 7.68391C60.4131 8.36339 60.8292 9.28283 60.8292 10.2413C60.8292 11.1997 60.4131 12.1191 59.6717 12.7986ZM18.3333 42.137C13.8531 40.0899 5.9375 42.137 5.9375 48.595C5.9375 52.46 7.70833 55.0529 0.625 58.2819C0.625 58.2819 12.1354 65.5471 20.1042 58.2819C24.6162 54.1682 25.3954 45.366 18.3333 42.137Z" fill="#FF4848"/>
</svg>
