<svg width="71" height="66" viewBox="0 0 71 66" fill="none" xmlns="http://www.w3.org/2000/svg">
<path d="M16.0773 40.2486L10.8002 61.0819C10.6368 61.7127 10.6858 62.3739 10.9409 62.9789C11.1961 63.5839 11.6454 64.1047 12.2302 64.4733C12.815 64.8419 13.5082 65.0412 14.2191 65.045C14.9301 65.0489 15.6258 64.8572 16.2154 64.4949L35.4998 52.7738L54.7841 64.4949C55.3874 64.8601 56.0989 65.0481 56.8228 65.0336C57.5468 65.0191 58.2485 64.8029 58.8337 64.414C59.4188 64.025 59.8593 63.482 60.0958 62.8581C60.3324 62.2341 60.3537 61.559 60.1569 60.9237L53.6791 40.2583L69.7441 27.0776C70.2587 26.6552 70.6261 26.1046 70.801 25.4938C70.976 24.8831 70.9507 24.239 70.7284 23.6412C70.506 23.0434 70.0964 22.5181 69.5501 22.1303C69.0038 21.7425 68.3448 21.5092 67.6546 21.4592L47.4635 19.9933L38.7262 2.35985C38.4476 1.79205 37.9947 1.3099 37.4222 0.971585C36.8497 0.633269 36.182 0.453247 35.4998 0.453247C34.8175 0.453247 34.1498 0.633269 33.5773 0.971585C33.0048 1.3099 32.5519 1.79205 32.2733 2.35985L23.536 19.9933L3.34498 21.456C2.66659 21.505 2.01805 21.7311 1.47694 22.1074C0.935835 22.4836 0.525076 22.994 0.293806 23.5775C0.0625356 24.161 0.0205472 24.7929 0.172864 25.3976C0.325181 26.0023 0.665353 26.5542 1.15268 26.9872L16.0773 40.2486ZM26.1816 26.2801C26.8138 26.2347 27.4209 26.035 27.9394 25.7021C28.4578 25.3692 28.8685 24.9153 29.1283 24.3879L35.4998 11.5334L41.8712 24.3879C42.1311 24.9153 42.5417 25.3692 43.0602 25.7021C43.5786 26.035 44.1857 26.2347 44.8179 26.2801L58.8854 27.2972L47.3006 36.8033C46.2948 37.6299 45.8946 38.9021 46.2629 40.0904L50.7006 54.2494L37.4689 46.206C36.8882 45.8507 36.2045 45.6609 35.5051 45.6609C34.8056 45.6609 34.122 45.8507 33.5412 46.206L19.7146 54.611L23.4333 39.9321C23.5697 39.3923 23.5514 38.8295 23.3802 38.2979C23.209 37.7664 22.8907 37.2839 22.4558 36.8969L11.6962 27.3327L26.1816 26.2801Z" fill="#EA6CFF"/>
</svg>
