<svg width="71" height="66" viewBox="0 0 71 66" fill="none" xmlns="http://www.w3.org/2000/svg">
<path d="M16.0773 40.7614L10.8002 61.5947C10.6368 62.2256 10.6858 62.8867 10.9409 63.4917C11.1961 64.0967 11.6454 64.6176 12.2302 64.9862C12.815 65.3548 13.5082 65.554 14.2191 65.5578C14.9301 65.5617 15.6258 65.37 16.2154 65.0077L35.4998 53.2866L54.7841 65.0077C55.3874 65.3729 56.0989 65.5609 56.8228 65.5464C57.5468 65.532 58.2485 65.3157 58.8337 64.9268C59.4188 64.5378 59.8593 63.9949 60.0958 63.3709C60.3324 62.7469 60.3537 62.0718 60.1569 61.4365L53.6791 40.7711L69.7441 27.5904C70.2587 27.168 70.6261 26.6174 70.801 26.0067C70.976 25.3959 70.9507 24.7518 70.7284 24.154C70.506 23.5562 70.0964 23.0309 69.5501 22.6431C69.0038 22.2553 68.3448 22.022 67.6546 21.972L47.4635 20.5061L38.7262 2.87267C38.4476 2.30487 37.9947 1.82272 37.4222 1.4844C36.8497 1.14609 36.182 0.966064 35.4998 0.966064C34.8175 0.966064 34.1498 1.14609 33.5773 1.4844C33.0048 1.82272 32.5519 2.30487 32.2733 2.87267L23.536 20.5061L3.34498 21.9688C2.66659 22.0178 2.01805 22.2439 1.47694 22.6202C0.935835 22.9964 0.525076 23.5068 0.293806 24.0903C0.0625356 24.6738 0.0205472 25.3057 0.172864 25.9104C0.325181 26.5151 0.665353 27.067 1.15268 27.5L16.0773 40.7614ZM26.1816 26.7929C26.8138 26.7475 27.4209 26.5479 27.9394 26.2149C28.4578 25.882 28.8685 25.4281 29.1283 24.9007L35.4998 12.0462L41.8712 24.9007C42.1311 25.4281 42.5417 25.882 43.0602 26.2149C43.5786 26.5479 44.1857 26.7475 44.8179 26.7929L58.8854 27.81L47.3006 37.3161C46.2948 38.1427 45.8946 39.4149 46.2629 40.6032L50.7006 54.7622L37.4689 46.7189C36.8882 46.3635 36.2045 46.1737 35.5051 46.1737C34.8056 46.1737 34.122 46.3635 33.5412 46.7189L19.7146 55.1239L23.4333 40.445C23.5697 39.9051 23.5514 39.3423 23.3802 38.8107C23.209 38.2792 22.8907 37.7967 22.4558 37.4097L11.6962 27.8455L26.1816 26.7929Z" fill="#FF4848"/>
</svg>
